<svg xmlns="http://www.w3.org/2000/svg" width="150" height="150" fill="none"><path fill="#000" d="M27.305 81.324h.88l11.284-.004v-.07l9.377-.056a2.288 2.288 0 0 0 1.405-.485l24.035-18.172 1.252-.974c.347-.264.75-.454 1.184-.568.284-.071.58-.11.88-.11h17.383v.035h14.418V31H94.985v.075l-4.785.028-4.93.027c-.522 0-1.023.174-1.41.485L59.829 49.783l-1.252.974a3.34 3.34 0 0 1-1.184.568c-.28.071-.58.11-.88.11H39.469v-.039H25.051V81.32h2.085c.055 0 .114.004.174.004h-.005Zm54.02-6.237a2.3 2.3 0 0 0-1.409.485L55.885 93.743l-1.252.975a3.416 3.416 0 0 1-2.065.674H25.052L25 118.546h34.54l25.295-19.343v18.763h25.468l.044-17.054c.004-1.07 1.022-1.934 2.27-1.934l3.849-.04h8.532V75.202l-43.677-.118.004.004Z"/></svg>