<svg width="396" height="50" viewBox="142 143 396 50" fill="none" xmlns="http://www.w3.org/2000/svg">
<path d="M147.375 147.977H185.739L193.3 154.556V163.422L190.163 166.227L195.821 171.148V180.93L187.643 188.022H147.375V147.977ZM178.906 163.136L180.419 161.819V159.301L178.906 157.984H160.256V163.133H178.906V163.136ZM180.643 178.01L182.94 176.066V174.235L180.643 172.288H160.256V178.01H180.643Z" fill="#FFFAEE"/>
<path d="M201.422 177.724H211.503V158.273H201.422V147.977H234.466V158.276H224.385V177.727H234.466V188.026H201.422V177.724Z" fill="#FFFAEE"/>
<path d="M242.586 147.977H255.467V176.58H280.671V188.022H242.586V147.977Z" fill="#FFFAEE"/>
<path d="M289.563 158.845H271.92V147.977H320.083V158.848H302.441V188.022H289.559V158.845H289.563Z" fill="#FFFAEE"/>
<path d="M326.65 147.977H368.656V158.848H339.532V165.998H361.094V176.297H339.532V188.026H326.65V147.977Z" fill="#FFFAEE"/>
<path d="M373.076 178.983V157.014L383.83 147.974H412.73L423.484 157.014V178.983L412.73 188.023H383.83L373.076 178.983ZM406.903 177.152L410.599 174.062V161.935L406.903 158.845H389.654L385.957 161.935V174.062L389.654 177.152H406.903Z" fill="#FFFAEE"/>
<path d="M431.209 178.125V147.977H444.09V173.319L447.9 176.58H460.164L463.974 173.319V147.977H476.855V178.125L465.429 188.022H442.635L431.209 178.125Z" fill="#FFFAEE"/>
<path d="M485.299 147.977H522.543L531.504 155.985V168.687L523.942 175.494L532.624 184.306V188.026H519.184L509.496 177.155H498.183V188.026H485.302V147.977H485.299ZM516.212 166.57L518.619 164.453V160.679L516.212 158.562H498.18V166.57H516.212Z" fill="#FFFAEE"/>
</svg>
