<svg width="461" height="123" viewBox="109 106 461 123" fill="none" xmlns="http://www.w3.org/2000/svg">
<path d="M282.012 151.57H260.848V141.234C260.939 129.273 264.123 124.829 267.624 122.548C271.236 120.186 276.736 119.971 282.012 120.019C282.54 120.019 283.063 119.915 283.55 119.713C284.038 119.511 284.481 119.214 284.853 118.841C285.226 118.467 285.522 118.023 285.723 117.535C285.924 117.047 286.027 116.525 286.025 115.997C286.025 115.47 285.922 114.948 285.72 114.461C285.518 113.974 285.223 113.532 284.85 113.159C284.477 112.786 284.035 112.491 283.548 112.289C283.061 112.087 282.539 111.984 282.012 111.984C276.761 112.027 269.67 111.804 263.328 115.757C256.878 119.792 252.729 127.968 252.813 141.235V151.571H244.543C242.319 151.571 240.517 153.374 240.517 155.584C240.518 156.651 240.943 157.673 241.698 158.427C242.453 159.181 243.476 159.604 244.543 159.604H252.813V219.829C252.814 220.896 253.237 221.919 253.991 222.673C254.744 223.428 255.767 223.853 256.833 223.855C257.9 223.853 258.922 223.428 259.676 222.674C260.43 221.919 260.854 220.896 260.855 219.829C260.853 181.318 260.846 178.664 260.846 159.604H282.01C283.077 159.603 284.099 159.179 284.854 158.426C285.608 157.672 286.034 156.65 286.036 155.584C286.038 153.373 284.229 151.57 282.012 151.57ZM376.656 215.826V215.808C369.882 215.868 364.419 215.461 361.319 213.128C358.25 210.946 355.525 206.177 355.489 194.023C355.484 176.736 355.48 168.743 355.48 159.712H376.653C378.872 159.712 380.673 157.909 380.673 155.691C380.673 153.474 378.871 151.68 376.653 151.68H355.48C355.48 143.677 355.489 133.347 355.489 116.004C355.488 114.937 355.063 113.915 354.308 113.161C353.554 112.407 352.53 111.984 351.464 111.984C350.937 111.984 350.415 112.089 349.928 112.291C349.441 112.493 348.999 112.79 348.628 113.163C348.256 113.537 347.961 113.98 347.761 114.467C347.56 114.955 347.458 115.477 347.46 116.004V151.68H339.179C338.114 151.68 337.092 152.103 336.339 152.856C335.586 153.61 335.163 154.631 335.163 155.696C335.163 156.761 335.586 157.782 336.339 158.536C337.092 159.289 338.114 159.712 339.179 159.712H347.46V194.023C347.413 207.105 350.515 215.239 356.637 219.658C362.744 223.915 369.881 223.798 376.656 223.854C377.184 223.853 377.706 223.749 378.194 223.546C378.681 223.343 379.124 223.047 379.497 222.673C379.87 222.299 380.165 221.855 380.366 221.367C380.568 220.879 380.671 220.356 380.67 219.828C380.67 219.302 380.566 218.781 380.364 218.294C380.162 217.808 379.866 217.367 379.494 216.995C379.121 216.623 378.678 216.328 378.191 216.128C377.705 215.927 377.183 215.825 376.656 215.826ZM561.436 215.834V215.815C552.764 215.875 547.447 214.928 544.884 212.553C542.243 210.371 540.25 205.317 540.265 194.193V159.711H561.432C563.661 159.711 565.447 157.908 565.447 155.691C565.447 153.473 563.661 151.679 561.432 151.679H540.264V115.996C540.265 115.469 540.162 114.948 539.961 114.461C539.76 113.974 539.465 113.532 539.093 113.159C538.72 112.787 538.278 112.491 537.791 112.29C537.305 112.089 536.783 111.986 536.256 111.987C535.729 111.985 535.206 112.088 534.719 112.289C534.231 112.49 533.787 112.785 533.414 113.157C533.04 113.53 532.743 113.972 532.541 114.459C532.338 114.946 532.233 115.468 532.233 115.996V151.679H523.957C523.429 151.678 522.907 151.781 522.419 151.982C521.931 152.184 521.488 152.479 521.114 152.851C520.74 153.224 520.444 153.666 520.241 154.153C520.038 154.641 519.934 155.163 519.933 155.691C519.934 156.757 520.358 157.78 521.113 158.534C521.867 159.288 522.89 159.711 523.957 159.711H532.233V194.193C532.257 205.939 534.075 213.705 539.629 218.622C545.262 223.37 552.535 223.79 561.435 223.852C562.498 223.851 563.518 223.428 564.27 222.675C565.022 221.923 565.445 220.903 565.446 219.839C565.446 219.313 565.343 218.791 565.141 218.305C564.94 217.819 564.644 217.377 564.272 217.005C563.899 216.633 563.457 216.338 562.97 216.137C562.484 215.936 561.962 215.833 561.436 215.834ZM306.364 219.828V155.589C306.364 153.373 308.167 151.57 310.374 151.57C311.44 151.571 312.462 151.994 313.216 152.748C313.97 153.501 314.394 154.523 314.396 155.589V219.828C314.396 222.04 312.592 223.854 310.374 223.854C308.167 223.854 306.364 222.04 306.364 219.828ZM492.849 219.828V155.589C492.849 153.373 494.632 151.57 496.849 151.57C497.377 151.57 497.9 151.673 498.388 151.875C498.876 152.077 499.319 152.373 499.693 152.746C500.067 153.119 500.363 153.562 500.566 154.05C500.768 154.538 500.872 155.06 500.873 155.589V219.828C500.872 220.895 500.448 221.919 499.693 222.673C498.939 223.428 497.916 223.853 496.849 223.854C494.632 223.854 492.849 222.04 492.849 219.828ZM437.184 151.301C425.728 151.309 415.515 156.617 408.854 164.896V116.004C408.854 114.939 408.431 113.917 407.678 113.164C406.925 112.411 405.903 111.987 404.838 111.987C403.772 111.987 402.751 112.411 401.997 113.164C401.244 113.917 400.821 114.939 400.821 116.004V190.085C400.821 190.369 400.926 190.621 400.987 190.891C402.622 209.458 418.185 224.016 437.186 224.016C457.263 224.016 473.532 207.75 473.532 187.668C473.53 167.584 457.261 151.31 437.184 151.301ZM437.184 215.983C421.534 215.953 408.874 203.314 408.854 187.668C408.874 172.011 421.536 159.367 437.184 159.34C452.826 159.367 465.473 172.009 465.497 187.668C465.471 203.313 452.825 215.952 437.184 215.983ZM304.704 135.45C303.203 133.94 302.357 131.899 302.352 129.77C302.352 127.653 303.207 125.586 304.704 124.09C306.21 122.588 308.25 121.742 310.377 121.739C312.491 121.739 314.56 122.593 316.054 124.09C317.558 125.599 318.404 127.64 318.408 129.77C318.403 131.899 317.557 133.941 316.054 135.45C314.545 136.95 312.506 137.796 310.377 137.805C308.25 137.796 306.212 136.95 304.704 135.45ZM491.175 135.45C489.673 133.941 488.826 131.9 488.82 129.77C488.825 127.64 489.671 125.598 491.175 124.09C492.686 122.588 494.728 121.743 496.859 121.739C498.969 121.739 501.033 122.593 502.534 124.09C504.032 125.602 504.875 127.642 504.882 129.77C504.874 131.898 504.031 133.938 502.534 135.45C501.033 136.941 498.969 137.805 496.859 137.805C494.729 137.796 492.687 136.95 491.175 135.45Z" fill="#FFFAEE"/>
<path d="M154.765 211.846C153.55 210.626 152.869 208.975 152.869 207.254C152.869 205.546 153.55 203.878 154.765 202.67C155.985 201.457 157.635 200.773 159.356 200.768C161.064 200.768 162.736 201.461 163.946 202.67C165.158 203.888 165.84 205.536 165.844 207.254C165.841 208.975 165.159 210.625 163.946 211.846C162.725 213.058 161.077 213.742 159.356 213.751C157.635 213.742 155.987 213.057 154.765 211.846ZM154.765 173.531C153.555 172.308 152.874 170.659 152.869 168.939C152.869 167.228 153.557 165.558 154.765 164.348C155.985 163.137 157.632 162.455 159.351 162.45C161.064 162.45 162.729 163.142 163.946 164.348C165.159 165.569 165.841 167.219 165.844 168.939C165.839 170.66 165.157 172.309 163.946 173.531C162.722 174.74 161.072 175.421 159.351 175.427C157.632 175.421 155.985 174.74 154.765 173.531ZM154.767 135.215C153.559 133.993 152.879 132.347 152.87 130.629C152.87 128.914 153.565 127.244 154.767 126.031C155.988 124.823 157.635 124.145 159.353 124.143C161.071 124.144 162.72 124.822 163.942 126.031C165.157 127.253 165.84 128.906 165.844 130.629C165.838 132.349 165.155 133.996 163.942 135.215C162.721 136.426 161.072 137.107 159.353 137.111C157.646 137.111 155.973 136.419 154.767 135.215ZM154.596 154.191C153.43 152.93 152.811 151.258 152.878 149.542C152.941 147.819 153.686 146.192 154.949 145.018C156.216 143.856 157.891 143.241 159.609 143.307C161.325 143.373 162.944 144.116 164.111 145.374C165.27 146.636 165.912 148.322 165.841 150.042C165.766 151.76 165.019 153.379 163.76 154.55C162.494 155.712 160.823 156.332 159.106 156.276C157.387 156.202 155.766 155.453 154.596 154.191ZM154.767 192.688C153.557 191.465 152.875 189.816 152.869 188.096C152.869 186.385 153.563 184.716 154.767 183.507C155.987 182.294 157.636 181.611 159.356 181.607C161.064 181.607 162.736 182.299 163.942 183.507C165.156 184.726 165.84 186.376 165.844 188.096C165.844 189.806 165.152 191.474 163.942 192.688C162.72 193.895 161.074 194.576 159.356 194.584C157.637 194.577 155.989 193.896 154.767 192.688ZM173.924 173.531C172.715 172.308 172.033 170.66 172.025 168.939C172.025 167.228 172.72 165.558 173.924 164.348C175.145 163.137 176.794 162.455 178.514 162.45C180.234 162.457 181.883 163.138 183.105 164.348C184.318 165.569 185.001 167.219 185.005 168.939C184.999 170.66 184.316 172.309 183.105 173.531C181.882 174.739 180.234 175.42 178.514 175.427C176.795 175.422 175.146 174.741 173.924 173.531ZM173.924 154.37C172.715 153.151 172.035 151.505 172.03 149.788C172.03 148.071 172.72 146.408 173.924 145.191C175.149 143.986 176.796 143.309 178.514 143.304C180.222 143.304 181.892 143.991 183.105 145.191C184.318 146.414 185.001 148.066 185.005 149.788C185.005 151.492 184.313 153.166 183.105 154.37C181.884 155.584 180.235 156.269 178.514 156.279C176.793 156.269 175.145 155.583 173.924 154.37ZM173.924 192.688C172.712 191.466 172.03 189.817 172.025 188.096C172.025 186.385 172.717 184.716 173.924 183.507C175.145 182.294 176.794 181.612 178.514 181.607C180.227 181.607 181.896 182.299 183.105 183.507C184.318 184.727 185.001 186.376 185.005 188.096C185.005 189.806 184.313 191.474 183.105 192.688C181.882 193.896 180.234 194.577 178.514 194.584C176.795 194.577 175.147 193.896 173.924 192.688ZM193.081 173.531C191.871 172.308 191.19 170.659 191.185 168.939C191.185 167.228 191.874 165.558 193.081 164.348C194.302 163.137 195.951 162.455 197.671 162.45C199.38 162.45 201.053 163.142 202.262 164.348C203.471 165.571 204.15 167.22 204.153 168.939C204.148 170.658 203.469 172.307 202.262 173.531C201.04 174.741 199.391 175.422 197.671 175.427C195.952 175.422 194.303 174.741 193.081 173.531ZM135.604 173.531C134.395 172.308 133.713 170.659 133.706 168.939C133.711 167.219 134.393 165.57 135.604 164.348C136.829 163.135 138.482 162.453 140.206 162.45C141.903 162.45 143.574 163.142 144.787 164.348C145.997 165.57 146.679 167.219 146.685 168.939C146.677 170.659 145.995 172.307 144.787 173.531C143.567 174.738 141.922 175.419 140.206 175.427C138.482 175.424 136.829 174.743 135.604 173.531ZM135.612 154.37C135.008 153.769 134.53 153.055 134.203 152.269C133.876 151.482 133.707 150.64 133.705 149.788C133.705 148.071 134.394 146.408 135.612 145.191C136.832 143.983 138.479 143.305 140.197 143.304C141.902 143.304 143.573 143.991 144.784 145.191C145.996 146.415 146.678 148.066 146.684 149.788C146.678 151.506 145.995 153.152 144.784 154.37C143.565 155.584 141.917 156.269 140.197 156.279C138.476 156.273 136.828 155.586 135.612 154.37ZM135.604 192.688C134.397 191.464 133.719 189.815 133.716 188.096C133.716 186.385 134.399 184.716 135.604 183.507C136.826 182.293 138.477 181.61 140.199 181.607C141.907 181.607 143.582 182.299 144.789 183.507C146.003 184.726 146.686 186.376 146.691 188.096C146.691 189.806 145.998 191.474 144.789 192.688C143.566 193.895 141.918 194.576 140.199 194.584C138.478 194.578 136.828 193.897 135.604 192.688ZM116.453 173.531C115.24 172.31 114.558 170.66 114.555 168.939C114.556 167.218 115.238 165.568 116.453 164.348C117.674 163.137 119.323 162.456 121.042 162.45C122.762 162.455 124.41 163.137 125.63 164.348C126.841 165.57 127.521 167.219 127.525 168.939C127.519 170.659 126.839 172.308 125.63 173.531C124.409 174.741 122.761 175.422 121.042 175.427C119.323 175.421 117.675 174.74 116.453 173.531Z" fill="#FFFAEE"/>
</svg>
