<svg width="443" height="154" viewBox="115 91 443 154" fill="none" xmlns="http://www.w3.org/2000/svg">
<path d="M416.133 236.973C409.634 235.561 403.256 231.74 398.66 226.506C396.898 224.498 392.95 218.32 392.95 217.569C392.95 217.131 405.806 211.705 406.025 212.051C411.041 219.988 414.282 222.604 420.601 223.819C426.718 224.994 434.843 222.269 438.151 217.931C440.746 214.53 441.921 210.557 442.231 204.147L442.514 198.265L440.492 200.04C434.273 205.501 425.76 207.575 416.979 205.768C412.511 204.849 405.422 201.208 401.825 197.984C396.362 193.088 392.07 185.554 390.676 178.415C389.735 173.597 390.29 164.978 391.829 160.521C394.375 153.15 399.314 146.643 405.508 142.5C410.833 138.939 415.534 137.312 421.583 136.937C429.046 136.475 435.219 138.474 440.413 143.034L442.356 144.74V141.875V139.009H449.685H457.014L456.813 174.519C456.59 214.056 456.682 213.031 452.601 221.436C446.594 233.808 431.385 240.288 416.133 236.973ZM432.469 190.946C436.27 189.148 439.16 185.998 441.423 181.185C443.021 177.787 443.17 176.984 443.156 171.853C443.143 167.364 442.884 165.591 441.865 163.009C437.672 152.387 427.044 147.719 417.209 152.179C412.791 154.182 408.698 158.49 406.918 163.012C405.909 165.573 405.64 167.399 405.615 171.865C405.585 177.119 405.704 177.737 407.421 181.224C412.339 191.215 423.085 195.385 432.469 190.946ZM171.251 205.513C151.018 201.124 135.548 187.16 129.431 167.764C120.271 138.72 138.32 107.53 168.844 99.6532C180.33 96.6892 195.268 98.2464 205.715 103.497C209.172 105.234 216.072 109.949 217.643 111.647L218.805 112.903L213.879 118.2L208.952 123.497L205.369 120.783C198.461 115.552 191.185 113.179 182.1 113.192C175.19 113.202 170.601 114.248 164.472 117.211C160.635 119.065 158.784 120.443 154.855 124.373C150.769 128.459 149.578 130.09 147.425 134.545C141.279 147.267 141.785 160.979 148.84 172.923C159.015 190.146 181.722 196.577 200.312 187.499C205.259 185.083 211.323 179.409 213.435 175.221C215.105 171.91 217.225 165.282 217.225 163.372V162.028H199.54H181.855V154.729V147.431H206.794H231.732L232.113 149.164C232.84 152.475 232.506 163.901 231.548 168.484C227.522 187.741 213.024 201.758 193.174 205.586C187.994 206.585 176.008 206.545 171.251 205.513ZM263.382 205.284C251.352 202.024 242.34 193.278 238.77 181.397C237.371 176.742 237.371 166.402 238.77 161.747C240.456 156.137 243.561 150.888 247.561 146.889C264.112 130.338 293.5 134.805 303.659 155.416C313.421 175.22 304.424 197.39 283.627 204.775C278.763 206.503 268.804 206.753 263.382 205.284ZM276.287 192.276C280.371 191.41 283.13 189.91 286.097 186.942C294.315 178.725 294.152 164.066 285.751 155.884C278.434 148.756 266.616 148.756 259.299 155.884C250.902 164.063 250.735 178.725 258.945 186.935C261.871 189.861 264.141 191.155 268.033 192.117C271.671 193.016 272.701 193.036 276.287 192.276ZM340.177 205.534C324.386 201.685 313.806 188.06 313.806 171.572C313.806 155.722 323.194 142.984 338.492 138.077C339.882 137.631 343.545 137.129 346.633 136.96C357.763 136.351 366.005 139.449 373.605 147.097C380.632 154.168 383.586 161.412 383.586 171.572C383.586 181.749 380.625 189 373.605 196.014C368.443 201.173 364.269 203.619 357.807 205.271C352.739 206.568 344.896 206.684 340.177 205.534ZM355.525 191.447C359.422 190.119 364.304 185.4 366.338 180.994C367.808 177.811 367.967 176.892 367.967 171.572C367.967 166.264 367.806 165.329 366.353 162.184C364.549 158.278 359.974 153.519 356.714 152.156C347.055 148.121 336.147 152 331.537 161.112C326.186 171.687 329.84 185.005 339.54 190.285C344.563 193.019 349.795 193.399 355.525 191.447ZM514.267 205.229C506.556 203.209 499.764 198.379 495.537 191.908C490.678 184.47 489.219 178.918 489.64 169.471C490.231 156.222 496.3 146.056 506.977 140.427C520.374 133.366 535.464 136.421 545.56 148.238C547.973 151.062 552.956 160.422 552.956 162.13C552.956 162.99 545.814 166.108 515.775 178.358C510.919 180.338 506.941 182.211 506.936 182.52C506.93 182.829 507.881 184.344 509.049 185.888C510.594 187.931 512.222 189.231 515.025 190.66C518.536 192.451 519.28 192.621 523.425 192.571C526.173 192.538 528.951 192.147 530.446 191.583C533.48 190.437 537.698 187.285 539.204 185.038C539.82 184.118 540.516 183.364 540.75 183.364C541.542 183.361 552.395 190.827 552.395 191.376C552.395 191.675 550.437 193.87 548.044 196.253C543.306 200.972 538.126 203.953 531.925 205.53C527.302 206.705 519.389 206.57 514.267 205.229ZM520.016 163.993C528.242 160.596 534.977 157.535 534.982 157.191C534.998 156.023 532.673 153.612 530.037 152.062C527.725 150.703 526.842 150.52 522.639 150.526C518.522 150.533 517.46 150.748 514.901 152.09C510.971 154.15 507.681 157.524 505.98 161.241C504.528 164.413 503.498 170.771 504.499 170.384C504.806 170.266 511.789 167.389 520.016 163.993ZM467.058 153.045V101.955H474.638H482.217V153.045V204.135H474.638H467.058V153.045Z" fill="#FFFAEE"/>
</svg>
