<svg width="475" height="93" viewBox="102 121 475 93" fill="none" xmlns="http://www.w3.org/2000/svg">
<path d="M171.894 167.217C170.097 167.217 169.204 165.054 170.475 163.784L181.496 152.762L170.143 141.397L159.121 152.419C157.851 153.689 155.688 152.785 155.688 150.999V135.411H139.619V150.999C139.619 152.796 137.456 153.689 136.185 152.419L125.164 141.397L113.81 152.762L124.832 163.784C126.102 165.054 125.198 167.217 123.412 167.217H107.824V183.286H120.814L145.971 158.175C146.966 157.18 148.58 157.18 149.576 158.175L174.686 183.286H187.494V167.217H171.894Z" fill="#FFFAEE"/>
<path d="M136.189 198.074C136.269 197.994 136.372 197.937 136.464 197.868L145.975 188.38C146.97 187.384 148.584 187.384 149.58 188.38L170.215 209.016L181.34 197.891L149.626 166.177C148.607 165.158 146.947 165.158 145.917 166.177L114.031 197.96L125.167 209.096L136.189 198.074Z" fill="#FFFAEE"/>
<path d="M203.911 197.102H219.191V150.304H230.945V197.102H246.224V208.802H203.911V197.102ZM225.068 143.284C222.874 143.284 220.954 142.484 219.309 140.885C217.663 139.286 216.84 137.395 216.84 135.211C216.84 133.027 217.663 130.999 219.309 129.361C220.954 127.723 222.874 126.904 225.068 126.904C227.262 126.904 229.299 127.723 230.945 129.361C232.59 130.999 233.413 132.949 233.413 135.211C233.413 137.473 232.59 139.286 230.945 140.885C229.299 142.484 227.34 143.284 225.068 143.284Z" fill="#FFFAEE"/>
<path d="M260.591 194.412V162.003H241.785V150.304H260.591V135.094H272.344V150.304H293.5V162.003H272.344V189.498L278.691 197.103H293.5V208.802H273.049L260.591 194.412Z" fill="#FFFAEE"/>
<path d="M299.374 192.657V182.478C299.374 171.246 302.391 162.92 308.425 157.499C314.458 152.078 323.352 149.368 335.105 149.368C346.859 149.368 355.654 151.981 361.727 157.207C367.8 162.433 370.836 170.154 370.836 180.372V185.403H311.128V188.094L318.885 197.103H350.972L358.965 187.743L366.722 196.986L356.614 208.802H313.244L299.374 192.657ZM357.911 173.703C357.911 169.569 355.972 166.43 352.093 164.285C348.214 162.14 342.553 161.068 335.109 161.068C327.665 161.068 322.004 162.14 318.125 164.285C314.247 166.43 312.307 169.569 312.307 173.703H357.911Z" fill="#FFFAEE"/>
<path d="M377.889 150.304H389.642V159.196L396.342 150.304H424.198L436.539 164.577L428.782 173.703L418.674 162.003H401.866L389.642 176.277V208.802H377.889V150.304Z" fill="#FFFAEE"/>
<path d="M441.239 150.304H452.993V159.196L459.692 150.304H487.548L499.889 164.577L492.132 173.703L482.024 162.003H465.216L452.993 176.277V208.802H441.239V150.304Z" fill="#FFFAEE"/>
<path d="M537.501 208.802C526.061 208.802 517.422 207.203 511.585 204.005C505.747 200.808 502.828 196.089 502.828 189.849C502.828 183.609 505.747 179.436 511.585 176.394C517.422 173.352 526.061 171.831 537.501 171.831C547.766 171.831 555.523 173.352 560.773 176.394C566.023 179.436 568.648 183.921 568.648 189.849C568.648 196.089 566.023 200.808 560.773 204.005C555.523 207.203 547.766 208.802 537.501 208.802ZM560.421 169.725L552.546 160.834H522.692L512.466 172.299L504.709 163.057L516.933 149.251H558.187L572.174 165.513V207.749H560.421V169.725ZM537.501 197.103C545.024 197.103 550.724 196.498 554.603 195.289C558.481 194.08 560.421 192.267 560.421 189.849C560.421 187.431 558.481 185.617 554.603 184.408C550.724 183.199 545.024 182.595 537.501 182.595C529.979 182.595 524.279 183.199 520.4 184.408C516.521 185.617 514.582 187.431 514.582 189.849C514.582 192.267 516.521 194.08 520.4 195.289C524.279 196.498 529.979 197.103 537.501 197.103Z" fill="#FFFAEE"/>
</svg>
