<svg width="680" height="336" viewBox="0 0 680 336" fill="none" xmlns="http://www.w3.org/2000/svg">
<path d="M178.289 143.13V173.733C178.289 180.345 176.574 185.191 173.154 188.262C169.729 191.334 165.461 192.87 160.347 192.87C157.956 192.87 155.727 192.53 153.664 191.849C151.6 191.168 149.698 190.113 147.967 188.684C146.231 187.254 144.869 185.259 143.886 182.702C142.904 180.145 142.41 177.154 142.41 173.733V170.568H154.37V175.422C154.37 177.392 154.991 178.907 156.233 179.962C157.476 181.017 158.846 181.544 160.347 181.544C161.849 181.544 163.279 181.017 164.5 179.962C165.721 178.907 166.329 177.392 166.329 175.422V154.388H153.174V143.13H178.293H178.289Z" fill="#FFFAEE"/>
<path d="M192.079 185.552L189.548 192.377H176.252L196.368 143.13H203.545L223.384 192.377H210.089L207.557 185.552H192.079ZM199.818 164.658L196.232 174.227H203.409L199.823 164.658H199.818Z" fill="#FFFAEE"/>
<path d="M259.194 192.377H226.689V143.13H238.648V181.051H259.194V192.377Z" fill="#FFFAEE"/>
<path d="M275.519 185.552L272.988 192.377H259.692L279.808 143.13H286.985L306.824 192.377H293.529L290.997 185.552H275.519ZM283.258 164.658L279.672 174.227H286.849L283.263 164.658H283.258Z" fill="#FFFAEE"/>
<path d="M309.499 143.13H326.105C333.044 143.13 338.464 144.985 342.357 148.686C346.25 152.392 348.195 157.013 348.195 162.548C348.195 168.083 346.246 172.703 342.357 176.409C338.464 180.115 333.048 181.966 326.105 181.966H321.463V192.377H309.503V143.13H309.499ZM321.459 170.64H327.015C329.781 170.64 332.117 169.959 334.014 168.598C335.912 167.236 336.865 165.22 336.865 162.548C336.865 159.876 335.903 157.966 333.98 156.532C332.057 155.102 329.734 154.388 327.015 154.388H321.459V170.64Z" fill="#FFFAEE"/>
<path d="M360.436 185.552L357.905 192.377H344.609L364.729 143.13H371.907L391.746 192.377H378.45L375.919 185.552H360.436ZM368.175 164.658L364.589 174.227H371.766L368.18 164.658H368.175Z" fill="#FFFAEE"/>
<path d="M447.957 143.13V173.733C447.957 180.345 446.243 185.191 442.822 188.262C439.397 191.334 435.13 192.87 430.016 192.87C427.625 192.87 425.395 192.53 423.332 191.849C421.268 191.168 419.367 190.113 417.635 188.684C415.899 187.254 414.538 185.259 413.555 182.702C412.572 180.145 412.079 177.154 412.079 173.733V170.568H424.038V175.422C424.038 177.392 424.659 178.907 425.902 179.962C427.144 181.017 428.514 181.544 430.016 181.544C431.518 181.544 432.947 181.017 434.168 179.962C435.389 178.907 435.998 177.392 435.998 175.422V154.388H422.843V143.13H447.962H447.957Z" fill="#FFFAEE"/>
<path d="M461.748 185.552L459.216 192.377H445.921L466.04 143.13H473.218L493.057 192.377H479.761L477.23 185.552H461.748ZM469.487 164.658L465.9 174.227H473.078L469.491 164.658H469.487Z" fill="#FFFAEE"/>
<path d="M497.698 143.13H515.005C521.851 143.13 527.131 144.959 530.837 148.618C534.542 152.277 536.393 156.804 536.393 162.199C536.393 165.624 535.559 168.662 533.896 171.308C532.232 173.959 529.85 176.009 526.757 177.464C528.305 178.685 530.624 181.638 533.721 186.331L537.589 192.381H524.153L521.409 188.16C519.953 185.956 518.958 184.501 518.418 183.799C517.877 183.097 517.162 182.51 516.273 182.042C515.384 181.574 514.163 181.315 512.614 181.268H509.657V192.385H497.698V143.13ZM509.657 154.388V169.938H516.129C518.847 169.938 521.017 169.296 522.638 168.002C524.255 166.713 525.067 164.777 525.067 162.199C525.067 159.621 524.234 157.791 522.57 156.43C520.902 155.068 518.758 154.388 516.133 154.388H509.657Z" fill="#FFFAEE"/>
</svg>
