<svg width="307" height="218" viewBox="186 59 307 218" fill="none" xmlns="http://www.w3.org/2000/svg">
<g clip-path="url(#clip0_19620_71576)">
<mask id="mask0_19620_71576" style="mask-type:luminance" maskUnits="userSpaceOnUse" x="191" y="64" width="297" height="208">
<path d="M191.637 64.6985H487.403V271.3H191.637V64.6985Z" fill="white"/>
</mask>
<g mask="url(#mask0_19620_71576)">
<path fill-rule="evenodd" clip-rule="evenodd" d="M314.445 87.3159C323.992 77.3773 337.28 71.2227 351.96 71.2227C371.532 71.2227 388.495 82.0965 397.629 98.2984C405.737 94.6739 414.519 92.8027 423.4 92.8071C458.631 92.8071 487.229 121.623 487.229 157.18C487.229 192.737 458.631 221.553 423.4 221.553C419.094 221.553 414.897 221.12 410.787 220.302C402.794 234.547 387.517 244.224 370.119 244.224C363.035 244.238 356.043 242.632 349.676 239.527C341.575 258.556 322.709 271.931 300.744 271.931C277.8 271.931 258.336 257.469 250.834 237.135C247.494 237.839 244.09 238.194 240.677 238.192C213.384 238.192 191.311 215.792 191.311 188.281C191.311 169.796 201.249 153.702 215.994 145.003C212.866 137.797 211.256 130.024 211.264 122.168C211.264 90.4171 237.035 64.755 268.786 64.755C287.38 64.755 304.017 73.6171 314.456 87.3724" fill="#FFFAEE"/>
</g>
<path fill-rule="evenodd" clip-rule="evenodd" d="M234.415 172.132C234.229 172.617 234.481 172.718 234.541 172.804C235.097 173.207 235.661 173.498 236.226 173.825C239.249 175.424 242.098 175.891 245.078 175.891C251.145 175.891 254.918 172.662 254.918 167.464V167.362C254.918 162.556 250.656 160.805 246.676 159.554L246.155 159.386C243.143 158.409 240.544 157.559 240.544 155.58V155.479C240.544 153.783 242.067 152.532 244.416 152.532C247.025 152.532 250.135 153.401 252.125 154.5C252.125 154.5 252.714 154.881 252.929 154.312C253.045 154.005 254.059 151.289 254.168 150.985C254.283 150.666 254.081 150.426 253.874 150.302C251.59 148.91 248.437 147.964 245.174 147.964L244.569 147.966C239.012 147.966 235.13 151.326 235.13 156.133V156.236C235.13 161.303 239.415 162.956 243.416 164.098L244.06 164.298C246.974 165.194 249.497 165.972 249.497 168.016V168.119C249.497 170 247.855 171.403 245.223 171.403C244.2 171.403 240.939 171.385 237.405 169.152C236.978 168.903 236.734 168.723 236.405 168.522C236.231 168.417 235.796 168.226 235.607 168.796L234.411 172.123M323.249 172.123C323.063 172.608 323.316 172.71 323.378 172.795C323.931 173.198 324.498 173.489 325.063 173.817C328.086 175.415 330.935 175.883 333.914 175.883C339.982 175.883 343.755 172.653 343.755 167.455V167.353C343.755 162.547 339.503 160.796 335.513 159.546L334.992 159.377C331.98 158.401 329.381 157.55 329.381 155.571V155.47C329.381 153.774 330.903 152.524 333.252 152.524C335.862 152.524 338.961 153.392 340.962 154.492C340.962 154.492 341.551 154.872 341.766 154.304C341.881 153.996 342.897 151.281 342.995 150.976C343.111 150.658 342.908 150.417 342.701 150.293C340.418 148.901 337.264 147.955 334.002 147.955L333.396 147.958C327.839 147.958 323.957 151.318 323.957 156.124V156.227C323.957 161.294 328.241 162.947 332.243 164.089L332.886 164.289C335.811 165.185 338.322 165.963 338.322 168.008V168.11C338.322 169.991 336.681 171.394 334.049 171.394C333.024 171.394 329.754 171.376 326.231 169.143C325.803 168.894 325.553 168.722 325.229 168.513C325.12 168.444 324.607 168.244 324.432 168.787L323.236 172.115M383.912 161.937C383.912 164.873 383.364 167.189 382.292 168.831C381.222 170.451 379.606 171.245 377.355 171.245C375.104 171.245 373.495 170.458 372.44 168.842C371.378 167.211 370.842 164.884 370.842 161.948C370.842 159.012 371.381 156.707 372.44 155.086C373.493 153.477 375.093 152.705 377.355 152.705C379.617 152.705 381.226 153.485 382.292 155.086C383.37 156.707 383.912 159.012 383.912 161.948M388.979 156.5C388.48 154.815 387.707 153.336 386.674 152.096C385.64 150.857 384.336 149.856 382.781 149.139C381.237 148.415 379.41 148.051 377.344 148.051C375.278 148.051 373.462 148.418 371.907 149.139C370.363 149.861 369.047 150.857 368.014 152.096C366.984 153.336 366.209 154.815 365.709 156.5C365.214 158.175 364.963 160.001 364.963 161.948C364.963 163.894 365.214 165.721 365.709 167.396C366.206 169.081 366.981 170.56 368.014 171.799C369.048 173.039 370.363 174.029 371.907 174.735C373.462 175.44 375.289 175.799 377.344 175.799C379.399 175.799 381.226 175.44 382.77 174.735C384.314 174.031 385.63 173.039 386.663 171.799C387.695 170.56 388.468 169.081 388.968 167.396C389.462 165.721 389.713 163.894 389.713 161.948C389.713 160.012 389.462 158.175 388.968 156.5M430.615 170.418C430.448 169.926 429.968 170.112 429.968 170.112C429.231 170.393 428.445 170.654 427.608 170.785C426.764 170.918 425.825 170.984 424.835 170.984C422.389 170.984 420.431 170.254 419.04 168.809C417.637 167.363 416.854 165.036 416.865 161.883C416.872 159.012 417.566 156.859 418.811 155.206C420.04 153.575 421.932 152.727 424.433 152.727C426.521 152.727 428.119 152.969 429.794 153.493C429.794 153.493 430.191 153.666 430.381 153.143C430.826 151.915 431.154 151.034 431.631 149.685C431.766 149.299 431.436 149.136 431.315 149.09C430.658 148.833 429.108 148.412 427.933 148.235C426.835 148.067 425.563 147.98 424.127 147.98C421.996 147.98 420.104 148.345 418.484 149.067C416.864 149.788 415.494 150.785 414.406 152.024C413.319 153.264 412.492 154.743 411.938 156.428C411.389 158.103 411.111 159.941 411.111 161.887C411.111 166.084 412.242 169.488 414.482 171.978C416.722 174.479 420.093 175.74 424.486 175.74C427.085 175.74 429.749 175.215 431.663 174.457C431.663 174.457 432.028 174.281 431.869 173.855L430.619 170.418M439.481 159.11C439.724 157.479 440.171 156.119 440.873 155.065C441.924 153.455 443.526 152.575 445.777 152.575C448.028 152.575 449.518 153.46 450.583 155.065C451.29 156.125 451.599 157.533 451.714 159.11L439.427 159.108L439.481 159.11ZM456.553 155.521C456.121 153.901 455.052 152.259 454.356 151.509C453.247 150.324 452.171 149.486 451.094 149.03C449.54 148.369 447.868 148.03 446.179 148.033C444.037 148.033 442.091 148.395 440.514 149.131C438.937 149.872 437.611 150.882 436.567 152.143C435.524 153.404 434.74 154.894 434.24 156.601C433.74 158.287 433.487 160.135 433.487 162.071C433.487 164.05 433.75 165.887 434.265 167.551C434.786 169.226 435.624 170.694 436.755 171.911C437.886 173.14 439.332 174.097 441.072 174.771C442.801 175.44 444.9 175.787 447.303 175.779C452.261 175.763 454.871 174.659 455.936 174.061C456.127 173.955 456.306 173.771 456.082 173.241L454.962 170.099C454.79 169.63 454.316 169.8 454.316 169.8C453.087 170.259 451.348 171.083 447.27 171.072C444.606 171.068 442.638 170.281 441.398 169.049C440.137 167.788 439.506 165.95 439.408 163.341L456.589 163.354C456.589 163.354 457.041 163.349 457.088 162.908C457.106 162.725 457.676 159.385 456.576 155.525L456.553 155.521ZM302.145 159.11C302.388 157.479 302.836 156.119 303.537 155.065C304.59 153.455 306.19 152.575 308.441 152.575C310.692 152.575 312.182 153.46 313.248 155.065C313.953 156.125 314.262 157.533 314.378 159.11L302.091 159.108L302.145 159.11ZM319.217 155.521C318.787 153.901 317.717 152.259 317.021 151.509C315.912 150.324 314.835 149.486 313.759 149.03C312.204 148.369 310.533 148.03 308.844 148.033C306.702 148.033 304.755 148.395 303.178 149.131C301.602 149.872 300.275 150.882 299.231 152.143C298.191 153.404 297.404 154.894 296.904 156.601C296.405 158.287 296.154 160.135 296.154 162.071C296.154 164.05 296.414 165.887 296.933 167.551C297.452 169.226 298.292 170.694 299.412 171.911C300.543 173.14 301.989 174.097 303.729 174.771C305.458 175.44 307.545 175.787 309.959 175.779C314.918 175.763 317.527 174.659 318.593 174.061C318.782 173.955 318.963 173.771 318.738 173.241L317.618 170.099C317.445 169.63 316.971 169.8 316.971 169.8C315.742 170.259 314.002 171.083 309.925 171.072C307.271 171.068 305.292 170.281 304.053 169.049C302.791 167.788 302.161 165.95 302.063 163.341L319.243 163.354C319.243 163.354 319.696 163.349 319.742 162.908C319.761 162.725 320.331 159.385 319.229 155.525L319.217 155.521ZM265.066 170.31C264.393 169.773 264.299 169.641 264.076 169.292C263.736 168.767 263.562 168.02 263.562 167.063C263.562 165.562 264.062 164.475 265.095 163.746C265.084 163.748 266.574 162.463 270.075 162.507C271.634 162.535 273.189 162.667 274.729 162.904V170.7H274.732C274.732 170.7 272.557 171.169 270.099 171.317C266.609 171.527 265.065 170.312 265.076 170.315L265.066 170.31ZM271.895 158.24C271.199 158.189 270.296 158.164 269.22 158.164C267.752 158.164 266.327 158.346 265.001 158.705C263.663 159.066 262.456 159.625 261.423 160.369C260.387 161.108 259.535 162.075 258.933 163.196C258.325 164.327 258.015 165.654 258.015 167.154C258.015 168.676 258.28 169.992 258.802 171.069C259.313 172.136 260.083 173.06 261.042 173.755C261.995 174.448 263.173 174.962 264.532 175.266C265.88 175.574 267.403 175.729 269.077 175.729C270.839 175.729 272.589 175.581 274.286 175.295C275.73 175.046 277.17 174.766 278.603 174.456C279.175 174.324 279.81 174.151 279.81 174.151C280.234 174.044 280.201 173.59 280.201 173.59L280.191 157.932C280.191 154.496 279.274 151.941 277.462 150.364C275.657 148.787 273.015 147.993 269.589 147.993C268.306 147.993 266.229 148.167 264.99 148.416C264.99 148.416 261.249 149.143 259.705 150.352C259.705 150.352 259.366 150.561 259.551 151.034L260.769 154.296C260.92 154.719 261.332 154.574 261.332 154.574C261.332 154.574 261.461 154.523 261.613 154.433C264.908 152.639 269.084 152.693 269.084 152.693C270.932 152.693 272.368 153.068 273.325 153.802C274.261 154.521 274.738 155.607 274.738 157.891V158.616C273.27 158.403 271.911 158.28 271.911 158.28L271.895 158.24ZM409.991 149.399C410.016 149.342 410.029 149.28 410.029 149.218C410.03 149.156 410.018 149.094 409.994 149.036C409.97 148.978 409.934 148.926 409.89 148.883C409.845 148.839 409.792 148.805 409.734 148.782C409.441 148.671 407.983 148.363 406.863 148.294C404.71 148.159 403.514 148.522 402.437 149.005C401.374 149.484 400.197 150.255 399.545 151.147L399.543 149.059C399.543 148.772 399.34 148.54 399.05 148.54H394.657C394.372 148.54 394.166 148.772 394.166 149.059V174.612C394.166 174.751 394.221 174.883 394.319 174.98C394.416 175.078 394.549 175.133 394.687 175.133H399.188C399.326 175.133 399.459 175.078 399.556 174.98C399.653 174.883 399.708 174.75 399.708 174.612V161.781C399.708 160.063 399.897 158.356 400.275 157.28C400.647 156.215 401.152 155.366 401.775 154.757C402.37 154.169 403.097 153.732 403.896 153.485C404.645 153.27 405.421 153.161 406.201 153.161C407.098 153.161 408.082 153.391 408.082 153.391C408.413 153.428 408.596 153.226 408.708 152.928C409.003 152.144 409.839 149.796 410.002 149.329" fill="#191919"/>
<path fill-rule="evenodd" clip-rule="evenodd" d="M234.415 172.133C234.229 172.618 234.481 172.719 234.541 172.805C235.097 173.207 235.661 173.499 236.226 173.826C239.249 175.425 242.098 175.892 245.078 175.892C251.145 175.892 254.918 172.663 254.918 167.465V167.363C254.918 162.557 250.656 160.806 246.676 159.555L246.155 159.387C243.143 158.41 240.544 157.56 240.544 155.581V155.48C240.544 153.784 242.067 152.533 244.416 152.533C247.025 152.533 250.135 153.402 252.125 154.501C252.125 154.501 252.714 154.882 252.929 154.313C253.045 154.005 254.059 151.29 254.168 150.986C254.283 150.667 254.081 150.427 253.874 150.303C251.59 148.911 248.437 147.965 245.174 147.965L244.569 147.967C239.012 147.967 235.13 151.327 235.13 156.133V156.237C235.13 161.304 239.415 162.957 243.416 164.099L244.06 164.299C246.974 165.195 249.497 165.973 249.497 168.017V168.12C249.497 170.001 247.855 171.404 245.223 171.404C244.2 171.404 240.939 171.386 237.405 169.153C236.978 168.904 236.734 168.724 236.405 168.523C236.231 168.418 235.796 168.227 235.607 168.797L234.411 172.124M323.249 172.124C323.063 172.609 323.316 172.711 323.378 172.796C323.931 173.199 324.498 173.49 325.063 173.817C328.086 175.416 330.935 175.884 333.914 175.884C339.982 175.884 343.755 172.654 343.755 167.456V167.354C343.755 162.548 339.503 160.797 335.513 159.547L334.992 159.378C331.98 158.402 329.381 157.551 329.381 155.572V155.471C329.381 153.775 330.903 152.524 333.252 152.524C335.862 152.524 338.961 153.393 340.962 154.493C340.962 154.493 341.551 154.873 341.766 154.305C341.881 153.997 342.897 151.282 342.995 150.977C343.111 150.659 342.908 150.418 342.701 150.294C340.418 148.902 337.264 147.956 334.002 147.956L333.396 147.959C327.839 147.959 323.957 151.319 323.957 156.125V156.228C323.957 161.295 328.241 162.948 332.243 164.09L332.886 164.29C335.811 165.186 338.322 165.964 338.322 168.009V168.111C338.322 169.992 336.681 171.395 334.049 171.395C333.024 171.395 329.754 171.377 326.231 169.144C325.803 168.895 325.553 168.723 325.229 168.514C325.12 168.445 324.607 168.245 324.432 168.788L323.236 172.116M383.912 161.938C383.912 164.874 383.364 167.19 382.292 168.832C381.222 170.452 379.606 171.246 377.355 171.246C375.104 171.246 373.495 170.459 372.44 168.843C371.378 167.212 370.842 164.885 370.842 161.949C370.842 159.013 371.381 156.708 372.44 155.087C373.493 153.478 375.093 152.706 377.355 152.706C379.617 152.706 381.226 153.486 382.292 155.087C383.37 156.708 383.912 159.013 383.912 161.949M388.979 156.501C388.48 154.816 387.707 153.337 386.674 152.097C385.64 150.858 384.336 149.857 382.781 149.139C381.237 148.416 379.41 148.052 377.344 148.052C375.278 148.052 373.462 148.419 371.907 149.139C370.363 149.862 369.047 150.858 368.014 152.097C366.984 153.337 366.209 154.816 365.709 156.501C365.214 158.176 364.963 160.002 364.963 161.949C364.963 163.895 365.214 165.722 365.709 167.397C366.206 169.082 366.981 170.561 368.014 171.8C369.048 173.04 370.363 174.03 371.907 174.736C373.462 175.441 375.289 175.8 377.344 175.8C379.399 175.8 381.226 175.441 382.77 174.736C384.314 174.032 385.63 173.04 386.663 171.8C387.695 170.561 388.468 169.082 388.968 167.397C389.462 165.722 389.713 163.895 389.713 161.949C389.713 160.013 389.462 158.176 388.968 156.501M430.615 170.419C430.448 169.927 429.968 170.113 429.968 170.113C429.231 170.394 428.445 170.655 427.608 170.786C426.764 170.919 425.825 170.985 424.835 170.985C422.389 170.985 420.431 170.255 419.04 168.81C417.637 167.364 416.854 165.037 416.865 161.884C416.872 159.013 417.566 156.86 418.811 155.207C420.04 153.576 421.932 152.728 424.433 152.728C426.521 152.728 428.119 152.97 429.794 153.494C429.794 153.494 430.191 153.667 430.381 153.144C430.826 151.916 431.154 151.035 431.631 149.686C431.766 149.3 431.436 149.137 431.315 149.091C430.658 148.834 429.108 148.413 427.933 148.236C426.835 148.068 425.563 147.981 424.127 147.981C421.996 147.981 420.104 148.346 418.484 149.068C416.864 149.789 415.494 150.786 414.406 152.025C413.319 153.265 412.492 154.744 411.938 156.429C411.389 158.104 411.111 159.941 411.111 161.888C411.111 166.085 412.242 169.489 414.482 171.979C416.722 174.48 420.093 175.741 424.486 175.741C427.085 175.741 429.749 175.216 431.663 174.458C431.663 174.458 432.028 174.282 431.869 173.856L430.619 170.419M439.481 159.111C439.724 157.48 440.171 156.12 440.873 155.066C441.924 153.456 443.526 152.576 445.777 152.576C448.028 152.576 449.518 153.461 450.583 155.066C451.29 156.126 451.599 157.534 451.714 159.111L439.427 159.109L439.481 159.111ZM456.553 155.522C456.121 153.902 455.052 152.26 454.356 151.51C453.247 150.325 452.171 149.487 451.094 149.031C449.54 148.37 447.868 148.031 446.179 148.034C444.037 148.034 442.091 148.396 440.514 149.132C438.937 149.873 437.611 150.883 436.567 152.144C435.524 153.405 434.74 154.895 434.24 156.602C433.74 158.288 433.487 160.136 433.487 162.072C433.487 164.051 433.75 165.888 434.265 167.552C434.786 169.227 435.624 170.695 436.755 171.912C437.886 173.141 439.332 174.098 441.072 174.772C442.801 175.441 444.9 175.788 447.303 175.78C452.261 175.764 454.871 174.66 455.936 174.062C456.127 173.956 456.306 173.772 456.082 173.242L454.962 170.1C454.79 169.631 454.316 169.801 454.316 169.801C453.087 170.26 451.348 171.084 447.27 171.073C444.606 171.069 442.638 170.282 441.398 169.05C440.137 167.789 439.506 165.951 439.408 163.342L456.589 163.355C456.589 163.355 457.041 163.35 457.088 162.909C457.106 162.726 457.676 159.386 456.576 155.526L456.553 155.522ZM302.145 159.111C302.388 157.48 302.836 156.12 303.537 155.066C304.59 153.456 306.19 152.576 308.441 152.576C310.692 152.576 312.182 153.461 313.248 155.066C313.953 156.126 314.262 157.534 314.378 159.111L302.091 159.109L302.145 159.111ZM319.217 155.522C318.787 153.902 317.717 152.26 317.021 151.51C315.912 150.325 314.835 149.487 313.759 149.031C312.204 148.37 310.533 148.031 308.844 148.034C306.702 148.034 304.755 148.396 303.178 149.132C301.602 149.873 300.275 150.883 299.231 152.144C298.191 153.405 297.404 154.895 296.904 156.602C296.405 158.288 296.154 160.136 296.154 162.072C296.154 164.051 296.414 165.888 296.933 167.552C297.452 169.227 298.292 170.695 299.412 171.912C300.543 173.141 301.989 174.098 303.729 174.772C305.458 175.441 307.545 175.788 309.959 175.78C314.918 175.764 317.527 174.66 318.593 174.062C318.782 173.956 318.963 173.772 318.738 173.242L317.618 170.1C317.445 169.631 316.971 169.801 316.971 169.801C315.742 170.26 314.002 171.084 309.925 171.073C307.271 171.069 305.292 170.282 304.053 169.05C302.791 167.789 302.161 165.951 302.063 163.342L319.243 163.355C319.243 163.355 319.696 163.35 319.742 162.909C319.761 162.726 320.331 159.386 319.229 155.526L319.217 155.522ZM265.066 170.311C264.393 169.774 264.299 169.642 264.076 169.293C263.736 168.768 263.562 168.021 263.562 167.064C263.562 165.563 264.062 164.476 265.095 163.747C265.084 163.749 266.574 162.464 270.075 162.508C271.634 162.536 273.189 162.668 274.729 162.905V170.701H274.732C274.732 170.701 272.557 171.17 270.099 171.318C266.609 171.527 265.065 170.313 265.076 170.316L265.066 170.311ZM271.895 158.241C271.199 158.19 270.296 158.165 269.22 158.165C267.752 158.165 266.327 158.347 265.001 158.706C263.663 159.067 262.456 159.626 261.423 160.37C260.387 161.109 259.535 162.076 258.933 163.197C258.325 164.328 258.015 165.655 258.015 167.155C258.015 168.677 258.28 169.993 258.802 171.07C259.313 172.137 260.083 173.061 261.042 173.756C261.995 174.449 263.173 174.963 264.532 175.267C265.88 175.575 267.403 175.73 269.077 175.73C270.839 175.73 272.589 175.582 274.286 175.296C275.73 175.047 277.17 174.767 278.603 174.457C279.175 174.325 279.81 174.152 279.81 174.152C280.234 174.045 280.201 173.591 280.201 173.591L280.191 157.933C280.191 154.497 279.274 151.942 277.462 150.365C275.657 148.788 273.015 147.994 269.589 147.994C268.306 147.994 266.229 148.168 264.99 148.417C264.99 148.417 261.249 149.144 259.705 150.353C259.705 150.353 259.366 150.562 259.551 151.035L260.769 154.297C260.92 154.72 261.332 154.575 261.332 154.575C261.332 154.575 261.461 154.524 261.613 154.434C264.908 152.64 269.084 152.694 269.084 152.694C270.932 152.694 272.368 153.069 273.325 153.803C274.261 154.522 274.738 155.608 274.738 157.892V158.617C273.27 158.404 271.911 158.281 271.911 158.281L271.895 158.241ZM409.991 149.4C410.016 149.343 410.029 149.281 410.029 149.219C410.03 149.156 410.018 149.095 409.994 149.037C409.97 148.979 409.934 148.927 409.89 148.883C409.845 148.84 409.792 148.806 409.734 148.783C409.441 148.672 407.983 148.364 406.863 148.295C404.71 148.16 403.514 148.523 402.437 149.006C401.374 149.485 400.197 150.256 399.545 151.148L399.543 149.06C399.543 148.773 399.34 148.541 399.05 148.541H394.657C394.372 148.541 394.166 148.773 394.166 149.06V174.613C394.166 174.752 394.221 174.884 394.319 174.981C394.416 175.079 394.549 175.134 394.687 175.134H399.188C399.326 175.134 399.459 175.079 399.556 174.981C399.653 174.884 399.708 174.751 399.708 174.613V161.782C399.708 160.064 399.897 158.357 400.275 157.281C400.647 156.216 401.152 155.367 401.775 154.758C402.37 154.17 403.097 153.733 403.896 153.486C404.645 153.271 405.421 153.162 406.201 153.162C407.098 153.162 408.082 153.392 408.082 153.392C408.413 153.429 408.596 153.227 408.708 152.929C409.003 152.145 409.839 149.797 410.002 149.33" fill="#191919"/>
<path fill-rule="evenodd" clip-rule="evenodd" d="M367.946 137.606C367.389 137.437 366.823 137.303 366.25 137.203C365.48 137.075 364.7 137.014 363.919 137.023C360.817 137.023 358.371 137.899 356.654 139.63C354.949 141.348 353.789 143.966 353.207 147.409L352.997 148.572H349.104C349.104 148.572 348.628 148.552 348.528 149.071L347.889 152.637C347.844 152.979 347.991 153.192 348.448 153.19H352.238L348.392 174.658C348.091 176.387 347.747 177.809 347.365 178.887C346.989 179.95 346.621 180.747 346.169 181.326C345.73 181.886 345.315 182.298 344.599 182.538C344.007 182.737 343.326 182.828 342.58 182.828C342.165 182.828 341.613 182.759 341.205 182.677C340.797 182.597 340.585 182.506 340.279 182.377C340.279 182.377 339.835 182.208 339.66 182.653C339.517 183.018 338.507 185.796 338.387 186.14C338.266 186.479 338.436 186.746 338.652 186.824C339.156 187.004 339.531 187.119 340.219 187.281C341.173 187.506 341.978 187.521 342.732 187.521C344.31 187.521 345.749 187.299 346.942 186.868C348.142 186.434 349.187 185.679 350.112 184.655C351.111 183.552 351.739 182.396 352.341 180.819C352.935 179.256 353.442 177.317 353.848 175.056L357.712 153.19H363.362C363.362 153.19 363.839 153.207 363.938 152.691L364.577 149.124C364.621 148.783 364.476 148.57 364.017 148.572H358.533C358.56 148.448 358.809 146.519 359.439 144.703C359.708 143.928 360.213 143.302 360.642 142.873C361.042 142.464 361.534 142.157 362.078 141.979C362.674 141.795 363.295 141.705 363.919 141.714C364.436 141.714 364.942 141.776 365.328 141.856C365.86 141.969 366.067 142.029 366.206 142.07C366.765 142.241 366.84 142.076 366.95 141.805L368.261 138.204C368.396 137.817 368.067 137.653 367.946 137.606ZM291.314 174.704C291.314 174.991 291.109 175.224 290.822 175.224H286.274C285.986 175.224 285.781 174.991 285.781 174.704V138.094C285.781 137.808 285.986 137.576 286.274 137.576H290.822C291.109 137.576 291.314 137.808 291.314 138.094V174.704Z" fill="#191919"/>
</g>
<defs>
<clipPath id="clip0_19620_71576">
<rect width="296.854" height="207.689" fill="white" transform="translate(191.572 64.1555)"/>
</clipPath>
</defs>
</svg>
