<svg width="247" height="188" viewBox="217 74 247 188" fill="none" xmlns="http://www.w3.org/2000/svg">
<path d="M340.819 79.8L222.399 151.878L340.819 220.524C380.287 197.636 419.761 174.759 459.232 151.878L340.819 79.8ZM235.628 151.733L340.819 87.7072L446.006 151.733L340.812 212.719L235.628 151.733Z" fill="#FFFAEE"/>
<path d="M225.627 231.78H228.242V248.148C228.242 253.131 228.562 255.502 232.06 255.502C235.49 255.502 235.843 253.098 235.843 248.148V231.78H238.457V248.396C238.457 251.752 238.352 254.087 237.115 255.68C236.057 257.022 234.25 257.833 232.06 257.833C229.835 257.833 228.031 257.022 226.969 255.68C225.7 254.087 225.627 251.752 225.627 248.396V231.78Z" fill="#FFFAEE"/>
<path d="M246.766 233.761V257.337H244.468V231.779H248.286L253.556 246.274C254.297 248.361 255.003 250.482 255.64 252.638C255.429 250.445 255.428 248.569 255.428 247.052V231.779H257.724V257.337H255.145L248.712 239.666C247.934 237.543 247.297 235.564 246.766 233.761Z" fill="#FFFAEE"/>
<path d="M266.456 231.779H263.841V257.337H266.456V231.779Z" fill="#FFFAEE"/>
<path d="M270.451 231.78H273.066L276.885 249.207C277.096 250.127 277.274 251.469 277.521 253.203C277.732 251.967 277.979 250.585 278.299 249.102L282.081 231.78H284.591L278.761 257.338H276.284L270.451 231.78Z" fill="#FFFAEE"/>
<path d="M289.187 231.78H300.675V234.148H291.802V242.952H298.308V245.283H291.802V254.971H300.992V257.338H289.187V231.78Z" fill="#FFFAEE"/>
<path d="M310.891 242.951C314.389 242.951 316.156 241.467 316.156 238.5C316.156 235.492 314.425 234.045 310.891 234.045H308.661V242.951H310.891ZM306.047 231.779H310.712C316.229 231.779 318.949 233.972 318.949 238.5C318.949 241.609 317.535 243.766 314.92 244.613L319.091 257.338H316.262L312.411 245.177C311.527 245.213 310.607 245.249 309.687 245.249H308.661V257.338H306.047V231.779Z" fill="#FFFAEE"/>
<path d="M324.748 250.551C324.926 253.872 326.199 255.464 328.813 255.464C331.039 255.464 332.563 253.803 332.563 251.221C332.563 248.464 330.723 246.838 327.61 244.543C324.464 242.209 322.664 240.511 322.664 237.045C322.664 233.794 325.028 231.288 328.319 231.288C332.101 231.288 334.432 233.794 334.574 238.216H332.134C331.923 235.07 330.686 233.477 328.424 233.477C326.34 233.477 324.995 234.856 324.995 237.045C324.995 238.143 325.457 239.241 326.231 240.052C327.577 241.467 329.344 242.562 331.003 243.904C333.727 246.096 335.032 248.147 335.032 251.115C335.032 255.217 332.49 257.832 328.741 257.832C324.711 257.832 322.344 255.217 322.275 250.551H324.748Z" fill="#FFFAEE"/>
<path d="M348.927 247.405L346.239 234.044L343.592 247.405H348.927ZM344.508 231.779H348.116L353.698 257.337H350.942L349.458 249.809H343.025L341.541 257.337H338.959L344.508 231.779Z" fill="#FFFAEE"/>
<path d="M358.613 231.78H361.264V254.898H369.287V257.338H358.613V231.78Z" fill="#FFFAEE"/>
<path d="M387.597 247.405L384.913 234.044L382.262 247.405H387.597ZM383.182 231.779H386.786L392.372 257.337H389.615L388.128 249.809H381.695L380.211 257.337H377.629L383.182 231.779Z" fill="#FFFAEE"/>
<path d="M396.365 231.78H398.983V248.148C398.983 253.131 399.3 255.502 402.798 255.502C406.227 255.502 406.58 253.098 406.58 248.148V231.78H409.195V248.396C409.195 251.752 409.09 254.087 407.853 255.68C406.791 257.022 404.991 257.833 402.798 257.833C400.569 257.833 398.769 257.022 397.707 255.68C396.434 254.087 396.365 251.752 396.365 248.396V231.78Z" fill="#FFFAEE"/>
<path d="M417.254 254.935C417.748 254.971 418.243 255.007 418.668 255.007C423.756 255.007 425.207 251.967 425.207 244.436C425.207 236.977 423.756 233.973 418.705 233.973C418.243 233.973 417.748 234.009 417.254 234.042V254.935ZM414.603 231.78H419.341C425.385 231.78 427.825 235.74 427.825 244.508C427.825 253.345 425.421 257.338 419.341 257.338H414.603V231.78Z" fill="#FFFAEE"/>
<path d="M435.707 231.779H433.092V257.337H435.707V231.779Z" fill="#FFFAEE"/>
<path d="M443.027 243.941C443.027 251.68 444.158 255.429 447.304 255.429C450.38 255.429 451.58 251.862 451.58 244.541C451.58 237.224 450.344 233.653 447.304 233.653C444.3 233.653 443.027 237.013 443.027 243.941ZM440.27 244.541C440.27 235.741 442.707 231.286 447.304 231.286C451.9 231.286 454.37 235.741 454.37 244.541C454.37 253.346 451.9 257.833 447.304 257.833C442.707 257.833 440.27 253.346 440.27 244.541Z" fill="#FFFAEE"/>
<path d="M387.157 139.837H385.908V152.041H387.157V139.837Z" fill="#FFFAEE"/>
<path d="M390.853 140.782V152.039H389.755V139.835H391.578L394.094 146.757C394.45 147.752 394.787 148.765 395.09 149.793C394.988 148.748 394.988 147.851 394.988 147.129V139.835H396.086V152.039H394.856L391.783 143.601C391.41 142.589 391.107 141.642 390.853 140.782Z" fill="#FFFAEE"/>
<path d="M404.865 148.308C404.865 150.873 403.685 152.275 401.674 152.275C399.395 152.275 398.231 150.217 398.231 146.099C398.231 141.71 399.312 139.583 401.723 139.583C403.566 139.583 404.747 140.984 404.747 143.415H403.53C403.447 141.611 402.788 140.681 401.71 140.681C400.104 140.681 399.533 142.402 399.533 145.98C399.533 149.488 400.157 151.16 401.911 151.16C403.009 151.16 403.734 150.148 403.734 148.291V148.038H404.865V148.308Z" fill="#FFFAEE"/>
<path d="M407.835 150.537H406.5V152.038H407.835V150.537Z" fill="#FFFAEE"/>
<path d="M337.591 154.672L337.607 122.634C337.617 117.481 341.778 113.316 346.932 113.306C352.083 113.316 356.251 117.481 356.254 122.634L356.297 154.672H337.591ZM363.014 160.858L415.594 158.332L415.311 154.672H363.014V122.634C363.014 113.751 355.815 106.553 346.932 106.546C338.046 106.553 330.851 113.751 330.851 122.634L330.838 154.672H327.754L321.846 162.837L330.838 162.408V176.893C330.828 182.041 326.66 186.209 321.509 186.215C316.362 186.209 312.194 182.041 312.187 176.893C312.207 161.348 312.244 145.803 312.26 130.258C312.26 130.258 312.478 124.099 308.89 120.874C304.138 116.719 294.253 119.136 294.253 119.136C306.496 119.205 305.428 129.694 305.428 129.694L305.428 176.893C305.431 185.777 312.623 192.975 321.509 192.975C330.392 192.975 337.591 185.777 337.591 176.893V162.081L356.307 161.181L356.33 178.605C356.33 178.605 355.98 184.761 359.571 187.989C364.32 192.141 374.208 189.724 374.208 189.724C362.48 189.865 363.014 179.165 363.014 179.165" fill="#FFFAEE"/>
</svg>
