<svg xmlns="http://www.w3.org/2000/svg" width="1600" height="1200" fill="none"><path fill="#FFFAEE" d="M0 0h1600v1200H0z"/><g fill="#000" clip-path="url(#a)"><path d="M270.369 611.898h14.644v-.086l11.292-.071c.626 0 1.228-.212 1.692-.597l28.94-22.283 1.506-1.195a3.908 3.908 0 0 1 1.429-.691c.34-.087.703-.134 1.058-.134h20.931v.047h17.363V550.19h-17.363v.094l-5.762.04-5.939.039c-.626 0-1.228.212-1.699.597l-28.933 22.275-1.506 1.195a3.926 3.926 0 0 1-1.429.692c-.34.086-.703.133-1.058.133h-20.522v-.047H267.65v36.69h2.719Zm65.03-7.648c-.625 0-1.228.213-1.699.598l-28.933 22.283-1.506 1.195a4.086 4.086 0 0 1-2.487.825h-33.126l-.062 28.39h41.584l30.454-23.713v23.006h30.663l.054-20.908c0-1.312 1.228-2.374 2.734-2.374l4.634-.047h10.273V604.4l-52.59-.142.007-.008Zm81.654-49.03h91.231l17.981 16.097v21.694l-7.461 6.862 13.454 12.041v23.934l-19.448 17.354h-95.757V555.22Zm74.981 37.091 3.599-3.222v-6.162l-3.599-3.223h-44.349v12.6h44.349v.007Zm4.132 36.392 5.46-4.755v-4.48l-5.46-4.764h-48.481v13.999h48.481Zm49.41-.7h23.974v-47.592h-23.974V555.22h78.58v25.199h-23.974v47.592h23.974v25.199h-78.58v-25.207Zm97.889-72.783h30.632v69.985h59.935v27.997h-90.567V555.22Zm111.72 26.59H713.23v-26.59h114.534v26.598h-41.955v71.384h-30.632V581.81h.008Zm88.198-26.59h99.889v26.598h-69.257v17.497h51.277v25.199h-51.277v28.696h-30.632v-97.99Zm110.39 75.864V577.33l25.573-22.118h68.724l25.57 22.118v53.754l-25.57 22.118h-68.724l-25.573-22.118Zm80.437-4.48 8.79-7.561v-29.672l-8.79-7.561h-41.015l-8.79 7.561v29.672l8.79 7.561h41.015Zm57.81 2.382V555.22h30.63v62.007l9.06 7.978h29.16l9.06-7.978V555.22h30.63v73.766l-27.17 24.216h-54.2l-27.17-24.216Zm128.64-73.766h88.57l21.31 19.595v31.078l-17.98 16.656 20.64 21.559v9.102h-31.96l-23.04-26.598h-26.9v26.598h-30.63v-97.99h-.01Zm73.51 45.494 5.73-5.18v-9.236l-5.73-5.179h-42.88v19.595h42.88Z"/></g><defs><clipPath id="a"><path fill="#fff" d="M268 542h1064.79v116H268z"/></clipPath></defs></svg>