<svg xmlns="http://www.w3.org/2000/svg" width="1600" height="1200" fill="none"><path fill="#FFFAEE" d="M0 0h1600v1200H0z"/><g fill="#191919" clip-path="url(#a)"><path d="M802.56 336.351 447.904 552.217 802.56 757.804c118.202-68.546 236.42-137.061 354.64-205.587L802.56 336.351ZM487.524 551.783 802.56 360.032l315.03 191.751-315.05 182.646-315.016-182.646Zm-29.952 239.734h7.831v49.022c0 14.922.958 22.022 11.436 22.022 10.271 0 11.327-7.199 11.327-22.022v-49.022h7.831v49.763c0 10.053-.315 17.045-4.019 21.814-3.17 4.02-8.582 6.449-15.139 6.449-6.666 0-12.067-2.429-15.247-6.449-3.802-4.769-4.02-11.761-4.02-21.814v-49.763Zm63.309 5.931v70.61h-6.883v-76.545h11.436l15.781 43.413c2.221 6.251 4.335 12.601 6.241 19.059-.632-6.567-.632-12.186-.632-16.729v-45.743h6.873v76.545h-7.723l-19.266-52.923a285.36 285.36 0 0 1-5.827-17.687Zm58.97-5.935h-7.831v76.545h7.831v-76.545Zm11.965.004h7.832l11.435 52.192c.632 2.755 1.165 6.774 1.906 11.969.632-3.704 1.373-7.841 2.331-12.285l11.327-51.876h7.515l-17.46 76.545h-7.416l-17.47-76.545Zm56.11 0h34.406v7.091h-26.575v26.367h19.484v6.982h-19.484v29.014h27.523v7.091h-35.354v-76.545Zm65.001 33.454c10.478 0 15.771-4.444 15.771-13.332 0-9.006-5.184-13.341-15.771-13.341h-6.676v26.673h6.676Zm-14.507-33.458h13.974c16.521 0 24.669 6.567 24.669 20.126 0 9.313-4.237 15.771-12.068 18.309l12.492 38.11h-8.473l-11.534-36.421c-2.647.109-5.402.217-8.158.217h-3.071v36.204h-7.831v-76.545Zm56.008 56.22c.533 9.945 4.345 14.715 12.176 14.715 6.666 0 11.229-4.978 11.229-12.71 0-8.256-5.511-13.125-14.833-19.998-9.421-6.992-14.813-12.077-14.813-22.457 0-9.737 7.081-17.242 16.936-17.242 11.327 0 18.309 7.505 18.734 20.748h-7.308c-.632-9.421-4.335-14.191-11.11-14.191-6.241 0-10.27 4.128-10.27 10.685 0 3.289 1.382 6.578 3.703 9.007 4.029 4.236 9.322 7.515 14.29 11.534 8.157 6.568 12.067 12.71 12.067 21.598 0 12.285-7.614 20.116-18.842 20.116-12.068 0-19.158-7.831-19.366-21.805h7.407Zm72.413-9.42-8.048-40.015-7.93 40.015h15.978Zm-13.233-46.8h10.804l16.719 76.545h-8.256l-4.443-22.546h-19.267l-4.444 22.546h-7.733l16.62-76.545Zm42.244.004h7.939v69.237h24.027v7.308h-31.966v-76.545Zm86.804 46.796-8.039-40.015-7.939 40.015h15.978Zm-13.223-46.8h10.794l16.729 76.545H948.7l-4.454-22.546h-19.267l-4.444 22.546h-7.732l16.63-76.545Zm39.481.004h7.841v49.022c0 14.922.948 22.022 11.426 22.022 10.271 0 11.327-7.199 11.327-22.022v-49.022h7.832v49.763c0 10.053-.32 17.045-4.02 21.814-3.18 4.02-8.572 6.449-15.139 6.449-6.676 0-12.068-2.429-15.248-6.449-3.811-4.769-4.019-11.761-4.019-21.814v-49.763Zm62.556 69.345c1.48.109 2.97.218 4.24.218 15.24 0 19.58-9.106 19.58-31.661 0-22.338-4.34-31.335-19.47-31.335-1.38 0-2.87.109-4.35.208v62.57Zm-7.94-69.345h14.19c18.11 0 25.41 11.861 25.41 38.119 0 26.466-7.2 38.426-25.41 38.426h-14.19v-76.545Zm63.21-.004h-7.83v76.545h7.83v-76.545Zm21.92 36.425c0 23.177 3.39 34.406 12.81 34.406 9.21 0 12.81-10.685 12.81-32.609 0-21.913-3.7-32.609-12.81-32.609-9 0-12.81 10.063-12.81 30.812Zm-8.25 1.797c0-26.357 7.29-39.699 21.06-39.699s21.16 13.342 21.16 39.699c0 26.367-7.39 39.808-21.16 39.808s-21.06-13.441-21.06-39.808Z"/><path d="M941.338 516.158h-3.742v36.549h3.742v-36.549Zm11.068 2.83v33.714h-3.289v-36.549h5.461l7.535 20.729a168.77 168.77 0 0 1 2.983 9.095c-.306-3.131-.306-5.817-.306-7.979v-21.845h3.288v36.549h-3.683l-9.204-25.271a134.485 134.485 0 0 1-2.785-8.443Zm41.967 22.541c0 7.683-3.535 11.88-9.559 11.88-6.824 0-10.31-6.162-10.31-18.496 0-13.145 3.239-19.514 10.458-19.514 5.52 0 9.056 4.197 9.056 11.475h-3.644c-.247-5.402-2.222-8.187-5.452-8.187-4.809 0-6.517 5.155-6.517 15.87 0 10.507 1.866 15.514 7.12 15.514 3.288 0 5.461-3.031 5.461-8.591v-.761h3.387v.81Zm8.897 6.675h-4.004v4.493h4.004v-4.493Z"/><path d="m792.89 560.587.05-95.949c.029-15.436 12.492-27.908 27.927-27.938 15.426.03 27.908 12.502 27.918 27.938l.129 95.949H792.89Zm76.14 18.526 157.47-7.564-.85-10.962H869.03v-95.949c0-26.605-21.558-48.163-48.163-48.183-26.614.02-48.162 21.578-48.162 48.183l-.04 95.949h-9.233l-17.697 24.452 26.93-1.284v43.382c-.029 15.416-12.512 27.898-27.937 27.918-15.415-.02-27.898-12.502-27.918-27.918.06-46.556.17-93.112.217-139.668 0 0 .652-18.447-10.092-28.105-14.231-12.443-43.837-5.204-43.837-5.204 36.667.207 33.468 31.621 33.468 31.621v141.356c.009 26.605 21.548 48.163 48.162 48.163 26.604 0 48.162-21.558 48.162-48.163v-44.36l56.053-2.696.069 52.182s-1.046 18.437 9.708 28.105c14.221 12.433 43.837 5.195 43.837 5.195-35.127.424-33.525-31.621-33.525-31.621"/></g><defs><clipPath id="a"><path fill="#fff" d="M421 307h758.208v587H421z"/></clipPath></defs></svg>