<svg width="16" height="16" viewBox="0 0 16 16" fill="none" xmlns="http://www.w3.org/2000/svg">
<path d="M8 1C4.13906 1 1 4.13906 1 8C1 11.8609 4.13906 15 8 15C11.8609 15 15 11.8609 15 8C15 4.13906 11.8609 1 8 1Z" fill="#FFFAEE"/>
<path d="M3.5 11.5C3.5 11.5 6.61034 4.00196 6.60296 4C6.60296 4 6.60296 4 6.60295 4H6.60296H8.96505L12.5 11.5L9.83007 11.5C9.83204 11.504 7.82813 6.89815 7.803 6.85184C7.79862 6.89201 6.4742 9.97455 6.45821 9.97835H7.88551C7.87902 9.98618 8.50611 11.4857 8.50611 11.5L3.5 11.5Z" fill="#191919"/>
</svg>
