<svg width="16" height="16" viewBox="0 0 16 16" fill="none" xmlns="http://www.w3.org/2000/svg">
<path d="M12.8519 14.3111C12.8732 14.3111 12.8822 14.3377 12.8658 14.351C11.4706 15.4231 9.75959 16.003 8 16C6.17009 16 4.48275 15.3851 3.13479 14.351C3.11776 14.3383 3.12734 14.3111 3.14862 14.3111H12.8519ZM14.9388 11.985C14.6604 12.4691 14.332 12.9227 13.9589 13.3382C13.9448 13.3539 13.9246 13.3628 13.9036 13.3627H2.09695C2.07589 13.3627 2.05578 13.3539 2.04163 13.3382C1.66857 12.9227 1.34015 12.4691 1.06178 11.985C1.05385 11.9706 1.05912 11.9525 1.07353 11.9445C1.07795 11.9421 1.08284 11.9409 1.08784 11.9409H14.9132C14.9361 11.9409 14.9505 11.9653 14.9388 11.985ZM15.842 9.59134C15.7478 10.0572 15.6121 10.5135 15.4367 10.9552C15.4279 10.9778 15.4061 10.9925 15.3819 10.9924H0.618661C0.594244 10.9928 0.572222 10.9779 0.563338 10.9552C0.387901 10.5135 0.2522 10.0572 0.157992 9.59134C0.154747 9.57523 0.165227 9.55953 0.181345 9.55629C0.183313 9.55592 0.185281 9.5557 0.187249 9.5557H15.8133C15.8319 9.5557 15.8457 9.57273 15.842 9.59134ZM7.94627 0.000183853C12.3891 -0.029604 16 3.56409 16 8.00035C16 8.19541 15.9932 8.38866 15.9798 8.58015C15.9784 8.59558 15.9655 8.60733 15.95 8.60728H0.0500062C0.0345796 8.60707 0.021866 8.59505 0.0207489 8.57962C0.00702463 8.38935 5.60835e-05 8.1986 2.88844e-06 8.0078C-0.00372076 3.65452 3.59333 0.0294398 7.94627 0.000183853Z" fill="#FFFAEE"/>
</svg>
