<svg width="16" height="16" viewBox="0 0 16 16" fill="none" xmlns="http://www.w3.org/2000/svg">
<g clip-path="url(#clip0_389_11880)">
<path d="M12 0H4C1.79086 0 0 1.79086 0 4V12C0 14.2091 1.79086 16 4 16H12C14.2091 16 16 14.2091 16 12V4C16 1.79086 14.2091 0 12 0Z" fill="#FFFAEE"/>
<g filter="url(#filter0_i_389_11880)">
<path fill-rule="evenodd" clip-rule="evenodd" d="M8.64368 11.7731C7.91976 11.7731 7.20901 11.5147 6.80099 10.9591L6.65707 11.6143L4 13L4.28684 11.6143L6.22186 3H8.59103L7.9066 6.03634C8.45941 5.44199 8.97273 5.22234 9.63083 5.22234C11.0523 5.22234 12 6.1397 12 7.81938C12 9.55074 10.9076 11.7731 8.64368 11.7731ZM9.55186 8.31036C9.55186 9.11144 8.97273 9.71871 8.22249 9.71871C7.8013 9.71871 7.4196 9.56366 7.16952 9.29233L7.53806 7.70309C7.81447 7.43176 8.13036 7.27671 8.49889 7.27671C9.06486 7.27671 9.55186 7.69017 9.55186 8.31036Z" fill="#191919"/>
</g>
</g>
<defs>
<filter id="filter0_i_389_11880" x="4" y="3" width="8" height="10" filterUnits="userSpaceOnUse" color-interpolation-filters="sRGB">
<feFlood flood-opacity="0" result="BackgroundImageFix"/>
<feBlend mode="normal" in="SourceGraphic" in2="BackgroundImageFix" result="shape"/>
<feColorMatrix in="SourceAlpha" type="matrix" values="0 0 0 0 0 0 0 0 0 0 0 0 0 0 0 0 0 0 127 0" result="hardAlpha"/>
<feOffset/>
<feGaussianBlur stdDeviation="0.0192413"/>
<feComposite in2="hardAlpha" operator="arithmetic" k2="-1" k3="1"/>
<feColorMatrix type="matrix" values="0 0 0 0 1 0 0 0 0 1 0 0 0 0 1 0 0 0 0.95 0"/>
<feBlend mode="normal" in2="shape" result="effect1_innerShadow_389_11880"/>
</filter>
<clipPath id="clip0_389_11880">
<rect width="16" height="16" fill="white"/>
</clipPath>
</defs>
</svg>
