<svg width="16" height="16" viewBox="0 0 16 16" fill="none" xmlns="http://www.w3.org/2000/svg">
<g clip-path="url(#clip0_389_11895)">
<path fill-rule="evenodd" clip-rule="evenodd" d="M11.3564 2.66064C13.1898 2.66064 14.6764 4.15398 14.6764 5.99598V7.10731L15.6431 9.03798C15.6903 9.13206 15.7147 9.23589 15.7145 9.34114C15.7142 9.44638 15.6893 9.5501 15.6418 9.64398L14.6764 11.5533V12.6653C14.6764 14.5066 13.1898 16 11.3564 16H4.71577C2.88177 16 1.39577 14.5066 1.39577 12.6653V11.5533L0.4091 9.64998C0.35945 9.55461 0.333359 9.44874 0.333011 9.34122C0.332663 9.2337 0.358068 9.12766 0.4071 9.03198L1.3951 7.10731V5.99598C1.3951 4.15398 2.88177 2.66064 4.7151 2.66064H11.3564ZM5.50977 6.39998C5.1077 6.39998 4.7221 6.5597 4.43779 6.844C4.15349 7.12831 3.99377 7.51391 3.99377 7.91598V10.6106C4.00208 11.0071 4.16542 11.3846 4.44876 11.662C4.7321 11.9395 5.11287 12.0949 5.50943 12.0949C5.906 12.0949 6.28677 11.9395 6.57011 11.662C6.85345 11.3846 7.01679 11.0071 7.0251 10.6106V7.91598C7.0251 7.51402 6.86547 7.12853 6.58131 6.84424C6.29715 6.55995 5.91172 6.40015 5.50977 6.39998ZM10.3938 6.39998C9.9917 6.39998 9.6061 6.5597 9.32179 6.844C9.03749 7.12831 8.87777 7.51391 8.87777 7.91598V10.6106C8.87777 11.0127 9.03749 11.3983 9.32179 11.6826C9.6061 11.9669 9.9917 12.1266 10.3938 12.1266C10.7958 12.1266 11.1814 11.9669 11.4657 11.6826C11.75 11.3983 11.9098 11.0127 11.9098 10.6106V7.91598C11.9098 7.71684 11.8705 7.51965 11.7943 7.33568C11.7181 7.1517 11.6063 6.98455 11.4655 6.84377C11.3247 6.70299 11.1575 6.59133 10.9735 6.51518C10.7894 6.43904 10.5929 6.39989 10.3938 6.39998Z" fill="#FFFAEE"/>
<path fill-rule="evenodd" clip-rule="evenodd" d="M8.03626 3.70533C8.52762 3.70533 8.99885 3.51014 9.34629 3.1627C9.69374 2.81526 9.88893 2.34402 9.88893 1.85267C9.88893 1.36131 9.69374 0.890076 9.34629 0.542634C8.99885 0.195191 8.52762 0 8.03626 0C7.5449 0 7.07367 0.195191 6.72623 0.542634C6.37879 0.890076 6.18359 1.36131 6.18359 1.85267C6.18359 2.34402 6.37879 2.81526 6.72623 3.1627C7.07367 3.51014 7.5449 3.70533 8.03626 3.70533Z" fill="#FFFAEE"/>
</g>
<defs>
<clipPath id="clip0_389_11895">
<rect width="16" height="16" fill="white"/>
</clipPath>
</defs>
</svg>
