<svg width="16" height="16" viewBox="0 0 16 16" fill="none" xmlns="http://www.w3.org/2000/svg">
<path fill-rule="evenodd" clip-rule="evenodd" d="M8 8C8 6.75736 9.00736 5.75 10.25 5.75C11.4926 5.75 12.5 6.75736 12.5 8C12.5 9.24264 11.4926 10.25 10.25 10.25C9.00736 10.25 8 9.24264 8 8Z" fill="#FFFAEE"/>
<path fill-rule="evenodd" clip-rule="evenodd" d="M3.5 12.5C3.5 11.2574 4.50736 10.25 5.75 10.25H8V12.5C8 13.7426 6.99264 14.75 5.75 14.75C4.50736 14.75 3.5 13.7426 3.5 12.5Z" fill="#FFFAEE"/>
<path fill-rule="evenodd" clip-rule="evenodd" d="M8 1.25V5.75H10.25C11.4926 5.75 12.5 4.74264 12.5 3.5C12.5 2.25736 11.4926 1.25 10.25 1.25H8Z" fill="#FFFAEE"/>
<path fill-rule="evenodd" clip-rule="evenodd" d="M3.5 3.5C3.5 4.74264 4.50736 5.75 5.75 5.75H8V1.25H5.75C4.50736 1.25 3.5 2.25736 3.5 3.5Z" fill="#FFFAEE"/>
<path fill-rule="evenodd" clip-rule="evenodd" d="M3.5 8C3.5 9.24264 4.50736 10.25 5.75 10.25H8V5.75H5.75C4.50736 5.75 3.5 6.75736 3.5 8Z" fill="#FFFAEE"/>
</svg>
