<svg width="16" height="16" viewBox="0 0 16 16" fill="none" xmlns="http://www.w3.org/2000/svg">
<path d="M7.0996 10.6211C5.55273 10.4336 4.46289 9.32031 4.46289 7.87891C4.46289 7.29297 4.67383 6.66016 5.02539 6.23829C4.87304 5.85156 4.89648 5.03125 5.07227 4.69141C5.54102 4.63281 6.17383 4.87891 6.54883 5.21875C6.99414 5.07812 7.46289 5.00781 8.0371 5.00781C8.61133 5.00781 9.08008 5.07812 9.50195 5.20704C9.86523 4.87891 10.5098 4.63281 10.9785 4.69141C11.1426 5.00781 11.166 5.82812 11.0137 6.22656C11.3887 6.67188 11.5879 7.26954 11.5879 7.87891C11.5879 9.32031 10.498 10.4102 8.92773 10.6094C9.32617 10.8672 9.5957 11.4297 9.5957 12.0742V13.293C9.5957 13.6445 9.88867 13.8438 10.2402 13.7031C12.3613 12.8945 14.0254 10.7734 14.0254 8.14844C14.0254 4.83204 11.3301 2.125 8.01367 2.125C4.69727 2.125 2.02539 4.83203 2.02539 8.14844C2.02539 10.75 3.67773 12.9063 5.90429 13.7149C6.2207 13.832 6.52539 13.6211 6.52539 13.3048V12.3672C6.36133 12.4375 6.15039 12.4844 5.96289 12.4844C5.18945 12.4844 4.73242 12.0625 4.40429 11.2774C4.27539 10.9609 4.13477 10.7734 3.86523 10.7383C3.7246 10.7266 3.67773 10.668 3.67773 10.5977C3.67773 10.457 3.9121 10.3516 4.14648 10.3516C4.48633 10.3516 4.77929 10.5625 5.08398 10.9961C5.31835 11.3359 5.56445 11.4883 5.85742 11.4883C6.15039 11.4883 6.33789 11.3828 6.60742 11.1133C6.80664 10.9141 6.95898 10.7383 7.0996 10.6211Z" fill="#FFFAEE"/>
</svg>
