<svg width="16" height="16" viewBox="0 0 16 16" fill="none" xmlns="http://www.w3.org/2000/svg">
<g clip-path="url(#clip0_389_11886)">
<path d="M0.96272 0.690271L9.816 0.0363508C10.9035 -0.0569292 11.1829 0.00595081 11.8667 0.503071L14.6928 2.49395C15.1589 2.83635 15.3141 2.92963 15.3141 3.30243V14.2213C15.3141 14.9056 15.0656 15.3104 14.1957 15.3722L3.91472 15.9949C3.26192 16.0258 2.95104 15.9325 2.60912 15.4968L0.528 12.7906C0.15472 12.2925 0 11.9197 0 11.4839V1.77827C0 1.21875 0.24848 0.752191 0.96272 0.690271Z" fill="#FFFAEE"/>
<path fill-rule="evenodd" clip-rule="evenodd" d="M9.816 0.0365108L0.96272 0.690431C0.24848 0.752191 0 1.21891 0 1.77827V11.4839C0 11.9196 0.15472 12.2924 0.528 12.7906L2.60912 15.4967C2.95104 15.9323 3.26192 16.0258 3.91472 15.9948L14.1958 15.3723C15.0651 15.3104 15.3142 14.9056 15.3142 14.2215V3.30259C15.3142 2.94899 15.1746 2.84707 14.7634 2.54531L11.8667 0.503071C11.183 0.00595081 10.9035 -0.0569292 9.816 0.0363508V0.0365108ZM4.1472 3.12387C3.30768 3.18035 3.11728 3.19315 2.64048 2.80547L1.42832 1.84131C1.30512 1.71651 1.36704 1.56083 1.67744 1.52979L10.1883 0.907871C10.903 0.845471 11.2752 1.09459 11.5547 1.31219L13.0144 2.36979C13.0768 2.40131 13.232 2.58739 13.0453 2.58739L4.256 3.11651L4.1472 3.12387ZM3.16848 14.1282V4.85891C3.16848 4.45411 3.2928 4.26739 3.66496 4.23603L13.76 3.64499C14.1024 3.61411 14.2571 3.83171 14.2571 4.23587V13.4434C14.2571 13.8482 14.1947 14.1906 13.6358 14.2215L3.97552 14.7815C3.41664 14.8124 3.16864 14.6263 3.16864 14.1282H3.16848ZM12.7045 5.35587C12.7664 5.63587 12.7045 5.91587 12.4245 5.94787L11.9589 6.04019V12.8839C11.5546 13.1015 11.1824 13.2258 10.8714 13.2258C10.3742 13.2258 10.2501 13.0701 9.87776 12.6039L6.83296 7.81347V12.4482L7.79616 12.6663C7.79616 12.6663 7.79616 13.2263 7.01904 13.2263L4.87664 13.3506C4.81424 13.2258 4.87664 12.9149 5.09376 12.853L5.65328 12.6978V6.56979L4.8768 6.50691C4.8144 6.22691 4.9696 5.82259 5.4048 5.79123L7.70352 5.63651L10.8715 10.4888V6.19603L10.064 6.10323C10.0016 5.76035 10.2501 5.51123 10.5605 5.48083L12.7045 5.35587Z" fill="#191919"/>
</g>
<defs>
<clipPath id="clip0_389_11886">
<rect width="16" height="16" fill="white"/>
</clipPath>
</defs>
</svg>
