<svg width="17" height="16" viewBox="0 0 17 16" fill="none" xmlns="http://www.w3.org/2000/svg">
<path d="M5.89316 3.36025C4.964 3.36025 4.21304 2.60928 4.21304 1.68012C4.21304 0.750964 4.964 0 5.89316 0C6.82232 0 7.57328 0.750964 7.57328 1.68012V3.36025H5.89316ZM5.89316 4.21304C6.82232 4.21304 7.57328 4.964 7.57328 5.89316C7.57328 6.82232 6.82232 7.57328 5.89316 7.57328H1.68012C0.750964 7.57328 0 6.82232 0 5.89316C0 4.964 0.750964 4.21304 1.68012 4.21304H5.89316Z" fill="#FFFAEE"/>
<path d="M12.7736 5.89316C12.7736 4.964 13.5245 4.21304 14.4537 4.21304C15.3828 4.21304 16.1338 4.964 16.1338 5.89316C16.1338 6.82232 15.3828 7.57328 14.4537 7.57328H12.7736V5.89316ZM11.9335 5.89316C11.9335 6.82232 11.1825 7.57328 10.2534 7.57328C9.32421 7.57328 8.57324 6.82232 8.57324 5.89316V1.68012C8.57324 0.750964 9.32421 0 10.2534 0C11.1825 0 11.9335 0.750964 11.9335 1.68012V5.89316Z" fill="#FFFAEE"/>
<path d="M3.36025 9.25337C3.36025 10.1825 2.60928 10.9335 1.68012 10.9335C0.750964 10.9335 0 10.1825 0 9.25337C0 8.32421 0.750964 7.57324 1.68012 7.57324H3.36025V9.25337ZM4.20031 9.25337C4.20031 8.32421 4.95127 7.57324 5.88043 7.57324C6.80959 7.57324 7.56056 8.32421 7.56056 9.25337V13.4537C7.56056 14.3828 6.80959 15.1338 5.88043 15.1338C4.95127 15.1338 4.20031 14.3828 4.20031 13.4537V9.25337Z" fill="#FFFAEE"/>
<path d="M10.2407 11.7736C11.1698 11.7736 11.9208 12.5245 11.9208 13.4537C11.9208 14.3828 11.1698 15.1338 10.2407 15.1338C9.31151 15.1338 8.56055 14.3828 8.56055 13.4537V11.7736H10.2407ZM10.2407 10.9335C9.31151 10.9335 8.56055 10.1825 8.56055 9.25337C8.56055 8.32421 9.31151 7.57324 10.2407 7.57324H14.4537C15.3829 7.57324 16.1338 8.32421 16.1338 9.25337C16.1338 10.1825 15.3829 10.9335 14.4537 10.9335H10.2407Z" fill="#FFFAEE"/>
</svg>
