<svg width="16" height="16" viewBox="0 0 16 16" fill="none" xmlns="http://www.w3.org/2000/svg">
<path fill-rule="evenodd" clip-rule="evenodd" d="M9.50134 5.5H13.2507C13.3093 5.5 13.368 5.504 13.424 5.512L9.51066 9.42534C9.50211 9.36684 9.49788 9.30778 9.498 9.24866V5.5H7.998V9.24938C7.998 10.7574 9.23934 11.9987 10.7473 11.9987H14.4973V10.4987H10.748C10.688 10.4987 10.6287 10.4947 10.5713 10.4867L14.4873 6.57C14.4961 6.6296 14.5006 6.68976 14.5007 6.75V10.4987H16V6.74931C16 5.24137 14.7587 4 13.2507 4H9.50131V5.5H9.50134ZM0 5V5.004L5.124 11.5293C5.74 12.3133 6.99931 11.878 6.99931 10.8807V5H5.5V9.58L1.904 5H0Z" fill="#FFFAEE"/>
</svg>
