<svg width="16" height="16" viewBox="0 0 16 16" fill="none" xmlns="http://www.w3.org/2000/svg">
<path d="M14.019 4.48237H13.903C13.2923 4.48142 12.7967 4.97598 12.7967 5.58659V8.05612C12.7967 8.54927 12.3891 8.94873 11.904 8.94873C11.6157 8.94873 11.328 8.80369 11.1573 8.5602L8.63506 4.95792C8.4258 4.6588 8.08527 4.48047 7.71666 4.48047C7.14164 4.48047 6.62417 4.96933 6.62417 5.57281V8.05659C6.62417 8.54975 6.21991 8.9492 5.73145 8.9492C5.44228 8.9492 5.155 8.80416 4.98425 8.56069L2.16197 4.52945C2.09823 4.43814 1.95508 4.48333 1.95508 4.59461V6.74836C1.95508 6.85727 1.98838 6.96284 2.05067 7.05223L4.82825 11.0188C4.99234 11.2532 5.23444 11.4273 5.51361 11.4905C6.2123 11.6494 6.85533 11.1115 6.85533 10.4263V7.94389C6.85533 7.45075 7.25484 7.05128 7.74805 7.05128H7.74947C8.04673 7.05128 8.32544 7.19633 8.49619 7.43981L11.0188 11.0416C11.2286 11.3412 11.5515 11.5191 11.9368 11.5191C12.5246 11.5191 13.0283 11.0297 13.0283 10.4267V7.94342C13.0283 7.45028 13.4278 7.05081 13.921 7.05081H14.0195C14.0813 7.05081 14.1313 7.00087 14.1313 6.93906V4.59412C14.1313 4.53231 14.0813 4.48237 14.0195 4.48237H14.019Z" fill="#FFFAEE"/>
</svg>
