<svg xmlns="http://www.w3.org/2000/svg" width="1600" height="1200" fill="none"><path fill="#FFFAEE" d="M0 0h1600v1200H0z"/><g clip-path="url(#a)"><g fill="#191919" clip-path="url(#b)"><path d="M477.904 609.704c-3.512 0-5.256-4.227-2.774-6.709l21.538-21.538-22.186-22.209-21.538 21.538c-2.482 2.483-6.709.716-6.709-2.773v-30.462h-31.401v30.462c0 3.511-4.227 5.256-6.71 2.773l-21.538-21.538-22.186 22.209 21.538 21.538c2.482 2.482.716 6.709-2.773 6.709h-30.462v31.401h25.385l49.158-49.069a4.98 4.98 0 0 1 7.045 0l49.07 49.069h25.027v-31.401h-30.484Z"/><path d="M408.133 670.003c.157-.157.358-.269.537-.403l18.585-18.541a4.98 4.98 0 0 1 7.045 0l40.325 40.325 21.739-21.739-61.974-61.974c-1.991-1.991-5.234-1.991-7.246 0l-62.31 62.108 21.761 21.761 21.538-21.537Z"/></g></g><g fill="#191919" clip-path="url(#c)"><path d="M540.469 668.104h29.858v-91.451h22.968v91.451h29.858v22.863h-82.684v-22.863Zm41.342-105.168c-4.287 0-8.039-1.563-11.254-4.687-3.216-3.125-4.823-6.821-4.823-11.089 0-4.267 1.607-8.23 4.823-11.431 3.215-3.201 6.967-4.801 11.254-4.801s8.269 1.6 11.484 4.801c3.216 3.201 4.823 7.011 4.823 11.431 0 4.42-1.607 7.964-4.823 11.089-3.215 3.124-7.043 4.687-11.484 4.687Zm69.416 99.911v-63.33h-36.748v-22.863h36.748v-29.721h22.968v29.721h41.343v22.863h-41.343v53.727l12.403 14.861h28.94v22.863h-39.965l-24.346-28.121Zm75.789-3.431v-19.89c0-21.948 5.895-38.219 17.685-48.812 11.79-10.593 29.169-15.89 52.137-15.89s40.156 5.106 52.023 15.318c11.866 10.212 17.8 25.302 17.8 45.268v9.831H749.984v5.259l15.158 17.604h62.703l15.618-18.29 15.159 18.062-19.752 23.091h-84.752l-27.102-31.551Zm114.388-37.037c0-8.078-3.79-14.213-11.369-18.405-7.58-4.191-18.643-6.287-33.189-6.287s-25.609 2.096-33.189 6.287c-7.579 4.192-11.369 10.327-11.369 18.405h89.116Zm39.039-45.726h22.968v17.376l13.092-17.376h54.434l24.116 27.892-15.158 17.833-19.753-22.862h-32.844l-23.887 27.892v63.559h-22.968V576.653Zm123.797 0h22.97v17.376l13.09-17.376h54.43l24.12 27.892-15.16 17.833-19.75-22.862h-32.85l-23.88 27.892v63.559h-22.97V576.653Zm188.11 114.315c-22.36 0-39.24-3.125-50.65-9.374-11.4-6.249-17.11-15.471-17.11-27.664 0-12.194 5.71-20.348 17.11-26.292 11.41-5.945 28.29-8.917 50.65-8.917 20.06 0 35.21 2.972 45.47 8.917 10.26 5.944 15.39 14.708 15.39 26.292 0 12.193-5.13 21.415-15.39 27.664-10.26 6.249-25.41 9.374-45.47 9.374Zm44.78-76.362-15.38-17.376h-58.34l-19.98 22.406-15.16-18.062 23.88-26.978h80.62l27.33 31.779v82.535h-22.97v-74.304Zm-44.78 53.499c14.7 0 25.84-1.181 33.42-3.544 7.58-2.362 11.36-5.906 11.36-10.631 0-4.725-3.78-8.269-11.36-10.631-7.58-2.363-18.72-3.544-33.42-3.544-14.7 0-25.84 1.181-33.42 3.544-7.58 2.362-11.37 5.906-11.37 10.631 0 4.725 3.79 8.269 11.37 10.631 7.58 2.363 18.72 3.544 33.42 3.544Z"/></g><defs><clipPath id="a"><path fill="#fff" d="M339.643 508.648H521.96v182.317H339.643z"/></clipPath><clipPath id="b"><path fill="#fff" d="M352.703 542.103h155.684v155.684H352.703z"/></clipPath><clipPath id="c"><path fill="#fff" d="M540.469 530.926h719.632v160.039H540.469z"/></clipPath></defs></svg>